<?xml version="1.0" encoding="UTF-8"?>
<svg id="blog" xmlns="http://www.w3.org/2000/svg" version="1.1" viewBox="0 0 32 32">
  <defs>
    <style>
    </style>
  </defs>
  <path class="blog" d="M26,12h-2v-4c0-2.8-2.2-5-5-5h-11c-2.8,0-5,2.2-5,5v12c0,.6.4,1,1,1s1-.4,1-1v-12c0-1.7,1.3-3,3-3h11c1.7,0,3,1.3,3,3v5c0,.6.4,1,1,1h3c.6,0,1,.4,1,1v9c0,1.7-1.3,3-3,3H8c-1.7,0-3-1.3-3-3s-.4-1-1-1-1,.4-1,1c0,2.8,2.2,5,5,5h16c2.8,0,5-2.2,5-5v-9c0-1.7-1.3-3-3-3Z"/>
  <path class="blog" d="M11.5,14h4c1.4,0,2.5-1.1,2.5-2.5s-1.1-2.5-2.5-2.5h-4c-1.4,0-2.5,1.1-2.5,2.5s1.1,2.5,2.5,2.5ZM11.5,11h4c.3,0,.5.2.5.5s-.2.5-.5.5h-4c-.3,0-.5-.2-.5-.5s.2-.5.5-.5ZM11.5,23h9c1.4,0,2.5-1.1,2.5-2.5s-1.1-2.5-2.5-2.5h-9c-1.4,0-2.5,1.1-2.5,2.5s1.1,2.5,2.5,2.5ZM11.5,20h9c.3,0,.5.2.5.5s-.2.5-.5.5h-9c-.3,0-.5-.2-.5-.5s.2-.5.5-.5Z"/>
</svg>