<?xml version="1.0" encoding="UTF-8"?>
<svg id="code" xmlns="http://www.w3.org/2000/svg" version="1.1" viewBox="0 0 1792 1792">
  <defs>
    <style>
      .cls-1 {
        fill: #fff;
        stroke-width: 0px;
      }
    </style>
  </defs>
  <path class="cls-1" d="M553,1399l-50,50c-6.7,6.7-14.3,10-23,10s-16.3-3.3-23-10L-9,983c-6.7-6.7-10-14.3-10-23s3.3-16.3,10-23l466-466c6.7-6.7,14.3-10,23-10s16.3,3.3,23,10l50,50c6.7,6.7,10,14.3,10,23s-3.3,16.3-10,23l-393,393,393,393c6.7,6.7,10,14.3,10,23s-3.3,16.3-10,23ZM1144,332l-373,1291c-2.7,8.7-7.8,15.2-15.5,19.5s-15.5,5.2-23.5,2.5l-62-17c-8.7-2.7-15.2-7.8-19.5-15.5s-5.2-15.8-2.5-24.5L1021,297c2.7-8.7,7.8-15.2,15.5-19.5s15.5-5.2,23.5-2.5l62,17c8.7,2.7,15.2,7.8,19.5,15.5s5.2,15.8,2.5,24.5ZM1801,983l-466,466c-6.7,6.7-14.3,10-23,10s-16.3-3.3-23-10l-50-50c-6.7-6.7-10-14.3-10-23s3.3-16.3,10-23l393-393-393-393c-6.7-6.7-10-14.3-10-23s3.3-16.3,10-23l50-50c6.7-6.7,14.3-10,23-10s16.3,3.3,23,10l466,466c6.7,6.7,10,14.3,10,23s-3.3,16.3-10,23Z"/>
</svg>