<?xml version="1.0" encoding="UTF-8"?>
<svg id="github-logo" xmlns="http://www.w3.org/2000/svg" version="1.1" viewBox="0 0 28 27.3">
  <defs>
    <style>
      .cls-1 {
        fill: #fff;
        stroke: #000;
        stroke-miterlimit: 10;
        stroke-width: .5px;
      }
    </style>
  </defs>
  <path class="cls-1" d="M27.6,14C27.6,6.5,21.5.3,14,.3S.4,6.5.4,14s4,11.2,9.4,13c.7-.2.8-.7.8-.7v-2.6c-.8.2-1.8.2-2.2.2s-2-.4-2.6-2.1c-.7-1.7-1.9-1.9-1.9-2.2s.3-.4.3-.4h.9c.7,0,1.5,1.2,2,2s1.7.9,2.4.9.9-.2,1.3-.3c.2-1.1.8-1.8.8-1.8-6.1-.5-6.2-5.1-6.2-6.9s1.4-3.5,1.4-3.5c0,0-.7-2,.2-3.6,1.9,0,3.8,1.4,3.8,1.4,0,0,1.7-.5,3.4-.5s3.4.5,3.4.5c0,0,1.9-1.4,3.8-1.4.9,1.6.2,3.6.2,3.6,0,0,1.4,1.7,1.4,3.5s-.2,6.3-6.2,6.9c0,0,.8,1.1.8,2.4v4s0,.5.8.7c5.5-1.8,9.4-6.9,9.4-13Z"/>
</svg>