<?xml version="1.0" encoding="UTF-8"?>
<svg id="insta" xmlns="http://www.w3.org/2000/svg" version="1.1" viewBox="0 0 64 64">
  <defs>
    <style>
      .cls-1 {
        fill: #fff;
        stroke: #000;
        stroke-miterlimit: 10;
        stroke-width: .5px;
      }
    </style>
  </defs>
  <path class="cls-1" d="M44.6,22.1c-.3,0-.5,0-.8-.1-.1,0-.2-.1-.3-.2-.1,0-.2-.2-.3-.2-.4-.4-.6-.9-.6-1.4,0-.1,0-.3,0-.4,0-.1,0-.3.1-.4,0-.1.1-.2.2-.4,0-.1.2-.2.2-.3,0,0,.2-.2.3-.2.1,0,.2-.1.3-.2.1,0,.3,0,.4-.1.7-.1,1.3,0,1.8.6,0,0,.2.2.2.3,0,.1.1.2.2.4,0,.1,0,.2.1.4,0,.1,0,.3,0,.4,0,.5-.2,1-.6,1.4,0,0-.2.2-.3.2-.1,0-.2.1-.3.2-.1,0-.2,0-.4.1-.1,0-.3,0-.4,0ZM32,42.9c-6,0-10.9-4.9-10.9-10.9s4.9-10.9,10.9-10.9,10.9,4.9,10.9,10.9h0c0,6-4.9,10.9-10.9,10.9h0ZM32,24.1c-4.4,0-7.9,3.6-7.9,7.9s3.6,7.9,7.9,7.9,7.9-3.6,7.9-7.9h0c0-4.4-3.6-7.9-7.9-7.9Z"/>
  <path class="cls-1" d="M27.6,33.5c-.8,0-1.5-.7-1.5-1.5,0-2.5,1.6-4.8,4-5.6.8-.3,1.6.1,1.9.9.3.8-.1,1.6-.9,1.9,0,0,0,0,0,0-1.2.4-2,1.5-2,2.8,0,.8-.7,1.5-1.5,1.5Z"/>
  <path class="cls-1" d="M39,55.5h-14c-9.1,0-16.5-7.4-16.5-16.5v-14c0-9.1,7.4-16.5,16.5-16.5h14c9.1,0,16.5,7.4,16.5,16.5v14c0,9.1-7.4,16.5-16.5,16.5ZM25,11.5c-7.5,0-13.5,6-13.5,13.5v14c0,7.5,6,13.5,13.5,13.5h14c7.5,0,13.5-6,13.5-13.5v-14c0-7.5-6-13.5-13.5-13.5h-14Z"/>
</svg>